<svg width="18" height="5" viewBox="0 0 18 5" fill="none" xmlns="http://www.w3.org/2000/svg">
<path d="M0 2.33333C0 1.71449 0.245833 1.121 0.683417 0.683418C1.121 0.245833 1.71449 0 2.33333 0C2.95217 0 3.54566 0.245833 3.98325 0.683418C4.42083 1.121 4.66667 1.71449 4.66667 2.33333C4.66667 2.95217 4.42083 3.54566 3.98325 3.98325C3.54566 4.42083 2.95217 4.66667 2.33333 4.66667C1.71449 4.66667 1.121 4.42083 0.683417 3.98325C0.245833 3.54566 0 2.95217 0 2.33333ZM6.66667 2.33333C6.66667 1.71449 6.9125 1.121 7.35008 0.683418C7.78767 0.245833 8.38116 0 9 0C9.61884 0 10.2123 0.245833 10.6499 0.683418C11.0875 1.121 11.3333 1.71449 11.3333 2.33333C11.3333 2.95217 11.0875 3.54566 10.6499 3.98325C10.2123 4.42083 9.61884 4.66667 9 4.66667C8.38116 4.66667 7.78767 4.42083 7.35008 3.98325C6.9125 3.54566 6.66667 2.95217 6.66667 2.33333ZM15.6667 0C16.2855 0 16.879 0.245833 17.3166 0.683418C17.7542 1.121 18 1.71449 18 2.33333C18 2.95217 17.7542 3.54566 17.3166 3.98325C16.879 4.42083 16.2855 4.66667 15.6667 4.66667C15.0478 4.66667 14.4543 4.42083 14.0168 3.98325C13.5792 3.54566 13.3333 2.95217 13.3333 2.33333C13.3333 1.71449 13.5792 1.121 14.0168 0.683418C14.4543 0.245833 15.0478 0 15.6667 0Z" fill="#606060"/>
</svg>
