<svg width="18" height="16" viewBox="0 0 18 16" fill="none" xmlns="http://www.w3.org/2000/svg">
<path d="M0.870968 0C0.388306 0 0 0.388306 0 0.870968V2.6129C0 3.09556 0.388306 3.48387 0.870968 3.48387H2.6129C3.09556 3.48387 3.48387 3.09556 3.48387 2.6129V0.870968C3.48387 0.388306 3.09556 0 2.6129 0H0.870968ZM6.3871 0.580645C5.74476 0.580645 5.22581 1.0996 5.22581 1.74194C5.22581 2.38427 5.74476 2.90323 6.3871 2.90323H16.8387C17.481 2.90323 18 2.38427 18 1.74194C18 1.0996 17.481 0.580645 16.8387 0.580645H6.3871ZM6.3871 6.3871C5.74476 6.3871 5.22581 6.90605 5.22581 7.54839C5.22581 8.19073 5.74476 8.70968 6.3871 8.70968H16.8387C17.481 8.70968 18 8.19073 18 7.54839C18 6.90605 17.481 6.3871 16.8387 6.3871H6.3871ZM6.3871 12.1935C5.74476 12.1935 5.22581 12.7125 5.22581 13.3548C5.22581 13.9972 5.74476 14.5161 6.3871 14.5161H16.8387C17.481 14.5161 18 13.9972 18 13.3548C18 12.7125 17.481 12.1935 16.8387 12.1935H6.3871ZM0 6.67742V8.41935C0 8.90202 0.388306 9.29032 0.870968 9.29032H2.6129C3.09556 9.29032 3.48387 8.90202 3.48387 8.41935V6.67742C3.48387 6.19476 3.09556 5.80645 2.6129 5.80645H0.870968C0.388306 5.80645 0 6.19476 0 6.67742ZM0.870968 11.6129C0.388306 11.6129 0 12.0012 0 12.4839V14.2258C0 14.7085 0.388306 15.0968 0.870968 15.0968H2.6129C3.09556 15.0968 3.48387 14.7085 3.48387 14.2258V12.4839C3.48387 12.0012 3.09556 11.6129 2.6129 11.6129H0.870968Z" fill="#414141"/>
</svg>
