<svg width="18" height="18" viewBox="0 0 18 18" fill="none" xmlns="http://www.w3.org/2000/svg">
<path d="M2.57143 1.92857C2.21786 1.92857 1.92857 2.21786 1.92857 2.57143V15.4286C1.92857 15.7821 2.21786 16.0714 2.57143 16.0714H11.5714V12.8571C11.5714 12.146 12.146 11.5714 12.8571 11.5714H16.0714V2.57143C16.0714 2.21786 15.7821 1.92857 15.4286 1.92857H2.57143ZM11.5714 18H2.57143C1.15313 18 0 16.8469 0 15.4286V2.57143C0 1.15313 1.15313 0 2.57143 0H15.4286C16.8469 0 18 1.15313 18 2.57143V11.5714V11.7924C18 12.4754 17.7308 13.1304 17.2487 13.6125L13.6125 17.2487C13.1304 17.7308 12.4754 18 11.7924 18H11.5714Z" fill="#414141"/>
</svg>
